<svg width="32" height="32" viewBox="0 0 32 32" fill="none" xmlns="http://www.w3.org/2000/svg">
<rect width="32" height="32" rx="16" fill="white"/>
<path d="M22.6667 14C22.6667 13.7239 22.6387 13.4543 22.5854 13.1939C22.379 12.1851 21.7929 11.3147 20.983 10.7385C20.3294 10.2735 19.53 10 18.6667 10C17.6422 10 16.7077 10.3851 16 11.0185C15.2924 10.3851 14.3578 10 13.3334 10C11.1242 10 9.33337 11.7909 9.33337 14.0001C9.33337 18.2882 12.7386 20.5877 14.6817 21.5508C14.9593 21.6883 15.207 21.7986 15.4107 21.8836C15.7903 22.0419 16.2097 22.0419 16.5894 21.8836C18.2191 21.2041 22.6667 18.9007 22.6667 14ZM22.6667 14C22.6667 14 22.6667 14 22.6667 14Z" stroke="#7E8184" stroke-width="1.2" stroke-linecap="round"/>
</svg>
