<svg width="20" height="20" viewBox="0 0 20 20" fill="none" xmlns="http://www.w3.org/2000/svg">
<path d="M9.36531 17.0647C9.75644 16.8286 10.2462 16.8286 10.6373 17.0647L14.6602 19.4928C15.5923 20.0554 16.7422 19.2197 16.4948 18.1594L15.4271 13.5836C15.3233 13.1387 15.4745 12.6728 15.8198 12.3737L19.3758 9.29321C20.1987 8.58033 19.7588 7.22859 18.6739 7.13658L13.9948 6.73974C13.5399 6.70116 13.1437 6.41398 12.9656 5.99367L11.1345 1.67352C10.7104 0.672903 9.29224 0.672901 8.86812 1.67352L7.03701 5.99367C6.85886 6.41398 6.46271 6.70116 6.00784 6.73974L1.32867 7.13658C0.24381 7.22859 -0.196104 8.58033 0.626812 9.29321L4.18278 12.3737C4.52811 12.6728 4.67931 13.1387 4.57549 13.5836L3.5078 18.1594C3.26041 19.2197 4.41026 20.0554 5.34236 19.4928L9.36531 17.0647Z" fill="#FF9B37"/>
</svg>
